<?xml version="1.0" encoding="UTF-8" ?>
<!DOCTYPE svg PUBLIC "-//W3C//DTD SVG 1.1//EN" "http://www.w3.org/Graphics/SVG/1.1/DTD/svg11.dtd">
<svg width="1200pt" height="1200pt" viewBox="0 0 1200 1200" version="1.1" xmlns="http://www.w3.org/2000/svg">
<g id="#e1c0b0ff">
<path fill="#e1c0b0" opacity="1.00" d=" M 561.15 20.16 C 568.72 19.20 576.37 19.84 583.96 18.99 C 676.36 16.57 769.51 35.99 852.68 76.59 C 852.83 76.67 853.14 76.82 853.29 76.90 L 854.18 77.37 C 854.38 77.47 854.77 77.67 854.96 77.77 L 856.04 78.31 C 856.24 78.40 856.63 78.60 856.83 78.69 L 857.72 79.12 C 857.87 79.19 858.17 79.34 858.32 79.41 C 861.68 80.99 864.99 82.66 868.29 84.38 C 868.38 84.42 868.56 84.52 868.65 84.56 C 876.02 88.20 883.12 92.36 890.28 96.41 C 890.37 96.46 890.54 96.56 890.63 96.61 C 894.92 99.13 899.22 101.62 903.44 104.25 C 903.53 104.30 903.69 104.41 903.78 104.46 C 906.34 106.04 908.88 107.66 911.44 109.25 C 911.52 109.31 911.69 109.41 911.77 109.46 C 918.77 113.91 925.69 118.47 932.45 123.26 C 932.53 123.32 932.69 123.43 932.77 123.49 C 935.01 125.05 937.27 126.60 939.47 128.23 C 939.55 128.29 939.71 128.41 939.79 128.46 C 955.23 139.67 970.27 151.48 984.46 164.24 C 984.54 164.31 984.69 164.43 984.76 164.49 C 986.12 165.69 987.80 166.64 988.82 168.19 C 989.17 169.17 989.84 169.83 990.83 170.18 C 991.73 170.60 992.41 171.28 992.84 172.20 C 993.20 173.19 993.89 173.82 994.93 174.10 C 996.85 175.04 998.32 176.68 999.91 178.09 C 1007.17 185.16 1014.33 192.33 1021.42 199.58 C 1022.98 201.34 1024.81 202.96 1025.90 205.08 C 1026.16 206.10 1026.79 206.79 1027.79 207.17 C 1028.70 207.59 1029.38 208.25 1029.82 209.17 C 1030.16 210.15 1030.82 210.82 1031.81 211.19 C 1033.54 212.41 1034.92 214.18 1035.87 216.07 C 1036.13 217.09 1036.77 217.78 1037.78 218.15 C 1039.46 219.09 1040.52 220.81 1041.74 222.28 C 1069.79 255.15 1094.32 291.07 1114.41 329.33 C 1114.46 329.43 1114.56 329.62 1114.61 329.72 C 1115.21 330.92 1115.82 332.13 1116.45 333.34 C 1116.50 333.44 1116.60 333.63 1116.65 333.72 C 1118.04 336.33 1119.38 338.97 1120.63 341.65 C 1120.70 341.80 1120.84 342.10 1120.91 342.25 L 1121.34 343.16 C 1121.43 343.35 1121.62 343.75 1121.72 343.94 L 1122.25 345.02 C 1122.35 345.21 1122.55 345.60 1122.64 345.80 L 1123.10 346.68 C 1123.18 346.84 1123.34 347.15 1123.42 347.31 C 1124.10 348.65 1124.77 350.01 1125.45 351.38 C 1125.50 351.48 1125.59 351.67 1125.64 351.76 C 1128.77 358.18 1131.59 364.76 1134.44 371.31 C 1134.48 371.40 1134.56 371.59 1134.60 371.68 C 1136.31 375.54 1137.84 379.48 1139.46 383.38 C 1139.50 383.48 1139.58 383.68 1139.62 383.77 C 1162.43 440.55 1176.02 501.01 1179.95 562.03 C 1180.93 581.22 1181.90 600.48 1180.78 619.70 C 1178.57 691.25 1162.83 762.44 1134.62 828.28 C 1134.58 828.37 1134.50 828.56 1134.46 828.65 C 1131.61 835.23 1128.78 841.83 1125.62 848.27 C 1125.57 848.36 1125.48 848.54 1125.44 848.64 C 1116.49 867.40 1106.70 885.76 1095.78 903.46 C 1095.73 903.54 1095.62 903.71 1095.57 903.79 C 1089.58 913.53 1083.31 923.10 1076.75 932.46 C 1076.70 932.54 1076.59 932.70 1076.53 932.78 C 1074.98 935.04 1073.40 937.28 1071.77 939.48 C 1071.71 939.56 1071.60 939.72 1071.54 939.79 C 1060.61 954.86 1049.14 969.57 1036.67 983.39 C 1036.61 983.47 1036.48 983.62 1036.41 983.69 C 1033.76 987.24 1030.58 990.32 1027.53 993.51 C 1020.10 1002.37 1011.58 1010.24 1003.46 1018.46 C 999.04 1023.05 993.87 1026.84 989.47 1031.46 C 987.74 1033.05 986.09 1034.86 983.94 1035.89 C 982.90 1036.14 982.21 1036.77 981.85 1037.77 C 980.75 1039.66 978.79 1040.81 977.15 1042.18 C 954.70 1061.37 930.78 1078.86 905.67 1094.39 C 905.58 1094.45 905.42 1094.55 905.33 1094.60 C 901.53 1097.00 897.65 1099.28 893.77 1101.54 C 893.68 1101.59 893.51 1101.69 893.43 1101.74 C 885.28 1106.51 877.08 1111.21 868.65 1115.44 C 868.56 1115.49 868.38 1115.58 868.29 1115.63 C 780.67 1161.56 681.03 1184.05 582.24 1180.87 C 576.16 1179.67 569.98 1180.29 563.84 1180.12 C 500.41 1176.14 437.55 1161.91 378.78 1137.60 C 378.68 1137.56 378.49 1137.48 378.39 1137.44 C 373.79 1135.56 369.23 1133.58 364.69 1131.57 C 364.60 1131.53 364.41 1131.45 364.32 1131.41 C 359.29 1129.17 354.24 1126.98 349.36 1124.43 C 349.22 1124.37 348.96 1124.23 348.82 1124.17 L 348.15 1123.84 C 348.02 1123.78 347.76 1123.66 347.63 1123.60 C 305.03 1103.25 265.13 1077.35 228.79 1047.24 C 225.37 1043.95 221.08 1041.50 218.15 1037.77 C 217.76 1036.77 217.05 1036.15 216.03 1035.91 C 214.13 1034.98 212.39 1033.55 211.19 1031.83 C 210.83 1030.83 210.16 1030.16 209.18 1029.82 C 208.25 1029.40 207.57 1028.73 207.15 1027.82 C 206.77 1026.82 206.07 1026.19 205.05 1025.94 C 203.11 1025.00 201.66 1023.33 200.08 1021.92 C 192.66 1014.67 185.33 1007.34 178.08 999.93 C 176.66 998.34 175.01 996.87 174.07 994.94 C 173.80 993.90 173.17 993.21 172.19 992.85 C 171.26 992.41 170.59 991.73 170.18 990.82 C 169.82 989.83 169.16 989.16 168.18 988.81 C 166.28 987.49 165.09 985.41 163.58 983.71 C 163.51 983.63 163.38 983.48 163.32 983.41 C 156.36 975.84 149.93 967.79 143.50 959.76 C 143.44 959.69 143.32 959.53 143.26 959.46 C 136.43 950.74 129.79 941.88 123.47 932.78 C 123.41 932.70 123.30 932.54 123.25 932.46 C 118.46 925.69 113.90 918.76 109.43 911.78 C 109.38 911.70 109.27 911.53 109.22 911.45 C 107.95 909.41 106.68 907.38 105.43 905.35 C 105.35 905.23 105.20 904.99 105.13 904.87 L 104.75 904.26 C 104.67 904.13 104.52 903.89 104.44 903.76 C 102.38 900.47 100.39 897.13 98.45 893.78 C 98.39 893.68 98.28 893.48 98.22 893.37 C 97.82 892.71 97.03 891.37 96.64 890.70 C 96.58 890.59 96.46 890.38 96.40 890.28 C 92.70 883.78 88.94 877.31 85.57 870.64 C 85.52 870.55 85.43 870.37 85.38 870.28 C 81.66 863.13 78.11 855.88 74.56 848.64 C 74.52 848.55 74.43 848.37 74.38 848.28 C 44.16 784.56 25.88 715.21 20.57 644.93 C 20.52 639.93 19.51 634.99 19.56 629.99 C 19.75 622.31 18.62 614.67 18.80 606.99 C 17.98 526.51 33.58 445.76 65.38 371.72 C 65.42 371.63 65.51 371.44 65.55 371.35 C 68.40 364.78 71.24 358.21 74.36 351.76 C 74.41 351.67 74.50 351.48 74.55 351.38 C 75.20 350.02 75.87 348.66 76.55 347.32 C 76.63 347.17 76.78 346.88 76.85 346.73 L 77.24 345.98 C 77.32 345.83 77.49 345.52 77.57 345.37 L 78.08 344.48 C 78.33 343.99 78.85 343.00 79.11 342.51 C 80.21 339.44 81.90 336.63 83.36 333.73 C 83.40 333.64 83.50 333.44 83.55 333.35 C 84.16 332.13 84.77 330.92 85.39 329.72 C 85.44 329.62 85.54 329.43 85.58 329.33 C 88.26 323.96 91.32 318.80 94.22 313.55 C 94.27 313.46 94.36 313.29 94.41 313.21 C 95.69 310.99 96.93 308.75 98.26 306.57 C 98.31 306.49 98.41 306.32 98.46 306.23 C 100.71 302.36 102.99 298.50 105.38 294.71 C 105.43 294.63 105.54 294.46 105.59 294.37 C 107.20 291.83 108.76 289.25 110.38 286.72 C 110.44 286.63 110.55 286.46 110.60 286.38 C 125.77 262.75 142.72 240.29 161.01 219.01 C 161.66 218.29 162.40 217.68 163.22 217.19 C 164.20 216.78 164.79 216.06 165.01 215.02 C 165.62 213.46 166.76 212.07 168.18 211.18 C 169.16 210.82 169.83 210.15 170.18 209.18 C 170.60 208.25 171.27 207.58 172.19 207.16 C 173.18 206.78 173.80 206.09 174.08 205.07 C 175.83 201.97 178.66 199.65 181.05 197.05 C 189.36 188.80 197.36 180.20 206.28 172.60 C 206.35 172.53 206.50 172.40 206.57 172.33 C 207.40 171.56 208.28 170.85 209.21 170.20 C 210.17 169.82 210.83 169.14 211.19 168.17 C 212.19 166.62 213.85 165.67 215.23 164.48 C 215.30 164.42 215.45 164.30 215.53 164.24 C 231.88 149.59 249.24 136.07 267.22 123.48 C 267.30 123.42 267.46 123.31 267.53 123.26 C 273.79 118.81 280.21 114.60 286.66 110.44 C 286.78 110.36 287.02 110.21 287.14 110.13 L 287.76 109.75 C 287.88 109.67 288.12 109.51 288.25 109.44 C 290.89 107.76 293.54 106.08 296.22 104.44 C 296.30 104.39 296.47 104.28 296.55 104.23 C 299.74 102.24 302.98 100.34 306.22 98.45 C 306.31 98.40 306.48 98.30 306.56 98.25 C 315.35 93.11 324.21 88.08 333.33 83.54 C 333.42 83.49 333.60 83.40 333.69 83.35 C 337.63 81.27 341.59 79.22 345.66 77.38 C 345.81 77.31 346.11 77.17 346.26 77.10 L 347.13 76.69 C 347.31 76.61 347.67 76.43 347.85 76.34 L 348.72 75.90 C 348.87 75.83 349.18 75.67 349.33 75.60 C 360.43 70.04 371.88 65.21 383.37 60.53 C 383.47 60.50 383.67 60.42 383.76 60.38 C 440.27 37.71 500.41 24.03 561.15 20.16 M 678.84 227.44 C 677.55 226.25 676.60 226.45 675.99 228.06 L 674.89 227.86 C 674.48 227.94 673.65 228.10 673.23 228.18 L 673.22 229.07 C 672.64 229.25 671.49 229.61 670.91 229.79 C 670.78 229.84 670.51 229.95 670.37 230.01 C 667.13 231.43 663.96 233.04 660.90 234.81 C 660.77 234.89 660.52 235.04 660.39 235.12 C 659.80 235.51 658.63 236.30 658.04 236.70 C 657.94 236.77 657.74 236.91 657.64 236.99 C 655.45 238.65 653.40 240.49 651.44 242.41 C 599.78 293.76 548.57 345.56 496.89 396.89 C 444.72 449.06 392.56 501.23 340.39 553.39 C 336.16 557.70 331.67 561.80 327.98 566.60 C 327.92 566.69 327.79 566.86 327.72 566.95 C 326.41 568.74 325.19 570.60 324.06 572.52 C 323.99 572.65 323.84 572.91 323.77 573.04 C 323.58 573.38 323.20 574.07 323.01 574.41 C 322.94 574.54 322.80 574.81 322.73 574.94 C 322.55 575.29 322.20 575.99 322.02 576.34 C 321.95 576.48 321.83 576.75 321.76 576.88 C 321.61 577.23 321.31 577.92 321.16 578.27 L 320.24 578.35 L 319.73 579.34 L 320.15 580.18 L 319.88 581.04 C 319.83 581.19 319.75 581.49 319.71 581.64 C 319.55 582.30 319.23 583.61 319.07 584.27 C 317.39 584.41 317.26 584.92 318.68 585.79 C 318.52 586.44 318.20 587.73 318.05 588.38 C 318.01 588.53 317.95 588.82 317.92 588.97 C 317.60 590.59 317.25 592.21 317.04 593.85 C 315.75 597.71 315.73 602.29 317.01 606.16 C 317.14 607.53 317.40 608.88 317.74 610.22 C 316.28 611.03 316.39 611.53 318.06 611.74 C 318.20 612.36 318.48 613.59 318.62 614.21 C 317.22 615.10 317.36 615.60 319.05 615.71 C 319.24 616.32 319.61 617.55 319.79 618.16 C 319.84 618.30 319.94 618.58 319.99 618.72 C 320.21 619.30 320.66 620.46 320.88 621.04 C 320.93 621.18 321.05 621.45 321.10 621.58 C 321.27 621.94 321.59 622.67 321.76 623.04 C 321.82 623.17 321.95 623.45 322.02 623.59 C 322.20 623.96 322.56 624.69 322.74 625.05 C 322.81 625.19 322.95 625.45 323.02 625.58 C 323.20 625.93 323.58 626.61 323.77 626.96 C 323.85 627.08 324.00 627.34 324.07 627.47 C 327.21 632.65 331.03 637.40 335.38 641.61 C 437.64 743.69 539.69 845.98 641.90 948.11 C 647.01 953.13 651.85 958.48 657.53 962.88 C 657.65 962.97 657.87 963.14 657.99 963.22 C 658.78 963.79 659.61 964.34 660.46 964.88 C 660.58 964.95 660.82 965.10 660.94 965.17 C 664.00 966.93 667.16 968.53 670.40 969.95 C 670.54 970.01 670.81 970.12 670.95 970.18 C 671.53 970.39 672.69 970.80 673.27 971.01 C 673.41 971.05 673.70 971.14 673.84 971.18 C 674.48 971.33 675.76 971.63 676.40 971.78 C 676.55 973.44 677.07 973.57 677.95 972.16 C 679.08 972.53 680.24 972.82 681.43 973.03 C 680.69 974.86 685.02 975.21 684.72 973.34 C 690.86 973.67 697.07 973.25 703.13 972.15 C 703.27 972.12 703.55 972.05 703.69 972.02 C 704.79 971.75 705.89 971.45 706.99 971.12 C 707.13 971.07 707.41 970.98 707.56 970.93 C 707.94 970.78 708.71 970.48 709.09 970.33 C 710.12 971.62 710.63 971.44 710.62 969.77 C 711.08 969.61 711.99 969.30 712.44 969.14 C 712.59 969.08 712.88 968.96 713.03 968.90 L 713.79 968.56 C 713.92 968.50 714.18 968.37 714.31 968.31 C 715.61 967.64 716.90 966.94 718.18 966.23 C 718.30 966.16 718.55 966.02 718.68 965.95 C 718.99 965.76 719.62 965.38 719.93 965.20 C 720.05 965.12 720.29 964.98 720.41 964.90 C 721.48 964.19 722.57 963.50 723.56 962.66 C 725.24 963.31 725.99 962.73 725.82 960.92 C 737.77 949.17 749.53 937.23 761.41 925.41 C 766.79 919.99 772.43 914.74 776.88 908.50 C 776.96 908.38 777.11 908.15 777.19 908.04 C 778.15 906.56 779.04 905.04 779.85 903.50 C 779.91 903.37 780.03 903.13 780.09 903.01 C 781.50 899.95 782.80 896.83 783.76 893.61 L 784.53 893.87 L 785.21 893.23 C 784.96 892.95 784.46 892.38 784.21 892.10 C 784.36 891.47 784.65 890.21 784.80 889.58 C 786.46 890.63 787.18 886.90 785.25 887.28 C 785.54 886.21 785.78 885.13 785.97 884.05 C 787.24 880.21 787.24 875.70 785.96 871.87 C 785.76 870.21 785.40 868.58 785.08 866.97 C 785.04 866.82 784.98 866.53 784.95 866.38 C 784.78 865.73 784.43 864.42 784.26 863.77 C 784.52 863.50 785.03 862.96 785.28 862.69 L 784.65 862.00 L 783.87 862.21 C 783.70 861.61 783.37 860.42 783.21 859.83 C 783.16 859.69 783.07 859.41 783.02 859.27 C 782.80 858.69 782.36 857.54 782.14 856.96 C 782.09 856.82 781.97 856.54 781.91 856.40 C 781.75 856.03 781.42 855.30 781.25 854.93 C 781.19 854.80 781.06 854.52 780.99 854.39 C 780.81 854.03 780.46 853.30 780.28 852.94 C 780.21 852.81 780.07 852.54 780.00 852.41 C 779.82 852.07 779.44 851.37 779.25 851.03 C 779.18 850.90 779.03 850.64 778.96 850.52 C 778.05 848.97 777.09 847.48 776.10 846.02 C 776.02 845.91 775.87 845.70 775.80 845.59 C 774.69 844.04 773.65 842.47 772.45 841.02 C 771.97 840.06 771.43 839.14 770.70 838.38 C 691.38 758.86 611.73 679.64 532.54 600.00 C 554.06 578.04 576.00 556.48 597.68 534.68 C 653.69 478.68 709.66 422.66 765.69 366.69 C 767.80 364.44 770.43 362.52 771.76 359.65 C 774.30 356.37 776.70 352.97 778.92 349.46 C 779.00 349.34 779.15 349.08 779.23 348.95 C 779.42 348.61 779.80 347.93 779.98 347.58 C 780.05 347.45 780.19 347.19 780.26 347.05 C 780.44 346.69 780.80 345.95 780.98 345.59 C 781.05 345.45 781.18 345.17 781.24 345.03 C 781.40 344.67 781.73 343.94 781.89 343.58 C 781.94 343.44 782.05 343.18 782.11 343.05 C 782.33 342.46 782.76 341.29 782.98 340.70 C 783.03 340.56 783.13 340.27 783.17 340.13 C 783.36 339.51 783.74 338.27 783.93 337.66 C 783.97 337.51 784.05 337.22 784.09 337.07 C 784.38 335.90 784.66 334.73 784.93 333.57 C 784.96 333.42 785.03 333.12 785.06 332.97 C 785.37 331.36 785.74 329.75 785.96 328.13 C 787.25 324.29 787.25 319.79 785.97 315.95 C 785.80 314.57 785.48 313.23 785.13 311.90 C 785.40 311.64 785.93 311.12 786.20 310.86 L 785.60 310.15 L 784.81 310.33 C 784.62 309.18 784.38 308.04 784.09 306.92 C 784.05 306.77 783.97 306.48 783.93 306.34 C 783.74 305.74 783.37 304.54 783.18 303.94 C 783.13 303.80 783.03 303.52 782.98 303.38 C 782.83 303.02 782.54 302.28 782.39 301.91 C 783.68 300.90 783.48 300.43 781.79 300.49 C 781.63 300.11 781.31 299.34 781.16 298.96 C 781.10 298.82 780.97 298.56 780.91 298.43 C 780.74 298.08 780.40 297.39 780.23 297.04 C 780.16 296.91 780.02 296.65 779.95 296.52 C 779.08 294.95 778.17 293.42 777.20 291.94 C 777.12 291.83 776.97 291.60 776.89 291.48 C 771.87 284.49 765.41 278.71 759.41 272.59 C 747.68 261.12 736.49 249.07 724.34 238.05 C 724.25 237.99 724.08 237.85 723.99 237.78 C 722.21 236.43 720.35 235.18 718.46 234.02 C 718.32 233.93 718.05 233.77 717.92 233.69 C 717.52 233.46 716.72 233.01 716.32 232.78 C 716.19 232.71 715.92 232.56 715.78 232.49 L 714.99 232.09 C 714.84 232.02 714.55 231.88 714.40 231.81 C 713.97 231.62 713.10 231.23 712.67 231.04 C 712.52 230.99 712.24 230.87 712.09 230.82 C 711.70 230.68 710.90 230.40 710.50 230.26 C 710.54 228.58 710.04 228.40 709.00 229.70 C 708.62 229.55 707.87 229.25 707.50 229.10 C 707.37 229.05 707.10 228.96 706.96 228.91 C 705.87 228.56 704.77 228.26 703.67 228.01 C 703.53 227.98 703.24 227.91 703.10 227.88 C 695.12 226.27 686.88 226.37 678.84 227.44 Z" />
</g>
<g id="#424242c3">
<path fill="#424242" opacity="0.76" d=" M 383.37 60.53 C 383.47 60.50 383.67 60.42 383.76 60.38 C 383.67 60.42 383.47 60.50 383.37 60.53 Z" />
<path fill="#424242" opacity="0.76" d=" M 348.72 75.90 C 348.87 75.83 349.18 75.67 349.33 75.60 C 349.18 75.67 348.87 75.83 348.72 75.90 Z" />
<path fill="#424242" opacity="0.76" d=" M 347.13 76.69 C 347.31 76.61 347.67 76.43 347.85 76.34 C 347.67 76.43 347.31 76.61 347.13 76.69 Z" />
<path fill="#424242" opacity="0.76" d=" M 852.68 76.59 C 852.83 76.67 853.14 76.82 853.29 76.90 C 853.14 76.82 852.83 76.67 852.68 76.59 Z" />
<path fill="#424242" opacity="0.76" d=" M 345.66 77.38 C 345.81 77.31 346.11 77.17 346.26 77.10 C 346.11 77.17 345.81 77.31 345.66 77.38 Z" />
<path fill="#424242" opacity="0.76" d=" M 854.18 77.37 C 854.38 77.47 854.77 77.67 854.96 77.77 C 854.77 77.67 854.38 77.47 854.18 77.37 Z" />
<path fill="#424242" opacity="0.76" d=" M 856.04 78.31 C 856.24 78.40 856.63 78.60 856.83 78.69 C 856.63 78.60 856.24 78.40 856.04 78.31 Z" />
<path fill="#424242" opacity="0.76" d=" M 857.72 79.12 C 857.87 79.19 858.17 79.34 858.32 79.41 C 858.17 79.34 857.87 79.19 857.72 79.12 Z" />
<path fill="#424242" opacity="0.76" d=" M 333.33 83.54 C 333.42 83.49 333.60 83.40 333.69 83.35 C 333.60 83.40 333.42 83.49 333.33 83.54 Z" />
<path fill="#424242" opacity="0.76" d=" M 868.29 84.38 C 868.38 84.42 868.56 84.52 868.65 84.56 C 868.56 84.52 868.38 84.42 868.29 84.38 Z" />
<path fill="#424242" opacity="0.76" d=" M 890.28 96.41 C 890.37 96.46 890.54 96.56 890.63 96.61 C 890.54 96.56 890.37 96.46 890.28 96.41 Z" />
<path fill="#424242" opacity="0.76" d=" M 306.22 98.45 C 306.31 98.40 306.48 98.30 306.56 98.25 C 306.48 98.30 306.31 98.40 306.22 98.45 Z" />
<path fill="#424242" opacity="0.76" d=" M 296.22 104.44 C 296.30 104.39 296.47 104.28 296.55 104.23 C 296.47 104.28 296.30 104.39 296.22 104.44 Z" />
<path fill="#424242" opacity="0.76" d=" M 903.44 104.25 C 903.53 104.30 903.69 104.41 903.78 104.46 C 903.69 104.41 903.53 104.30 903.44 104.25 Z" />
<path fill="#424242" opacity="0.76" d=" M 287.76 109.75 C 287.88 109.67 288.12 109.51 288.25 109.44 C 288.12 109.51 287.88 109.67 287.76 109.75 Z" />
<path fill="#424242" opacity="0.76" d=" M 911.44 109.25 C 911.52 109.31 911.69 109.41 911.77 109.46 C 911.69 109.41 911.52 109.31 911.44 109.25 Z" />
<path fill="#424242" opacity="0.76" d=" M 286.66 110.44 C 286.78 110.36 287.02 110.21 287.14 110.13 C 287.02 110.21 286.78 110.36 286.66 110.44 Z" />
<path fill="#424242" opacity="0.76" d=" M 267.22 123.48 C 267.30 123.42 267.46 123.31 267.53 123.26 C 267.46 123.31 267.30 123.42 267.22 123.48 Z" />
<path fill="#424242" opacity="0.76" d=" M 932.45 123.26 C 932.53 123.32 932.69 123.43 932.77 123.49 C 932.69 123.43 932.53 123.32 932.45 123.26 Z" />
<path fill="#424242" opacity="0.76" d=" M 939.47 128.23 C 939.55 128.29 939.71 128.41 939.79 128.46 C 939.71 128.41 939.55 128.29 939.47 128.23 Z" />
<path fill="#424242" opacity="0.76" d=" M 215.23 164.48 C 215.30 164.42 215.45 164.30 215.53 164.24 C 215.45 164.30 215.30 164.42 215.23 164.48 Z" />
<path fill="#424242" opacity="0.76" d=" M 984.46 164.24 C 984.54 164.31 984.69 164.43 984.76 164.49 C 984.69 164.43 984.54 164.31 984.46 164.24 Z" />
<path fill="#424242" opacity="0.76" d=" M 209.21 170.20 C 208.78 168.48 209.44 167.80 211.19 168.17 C 210.83 169.14 210.17 169.82 209.21 170.20 Z" />
<path fill="#424242" opacity="0.76" d=" M 988.82 168.19 C 990.54 167.80 991.21 168.46 990.83 170.18 C 989.84 169.83 989.17 169.17 988.82 168.19 Z" />
<path fill="#424242" opacity="0.76" d=" M 206.28 172.60 C 206.35 172.53 206.50 172.40 206.57 172.33 C 206.50 172.40 206.35 172.53 206.28 172.60 Z" />
<path fill="#424242" opacity="0.76" d=" M 992.84 172.20 C 994.51 171.74 995.20 172.37 994.93 174.10 C 993.89 173.82 993.20 173.19 992.84 172.20 Z" />
<path fill="#424242" opacity="0.76" d=" M 172.19 207.16 C 171.72 205.48 172.35 204.78 174.08 205.07 C 173.80 206.09 173.18 206.78 172.19 207.16 Z" />
<path fill="#424242" opacity="0.76" d=" M 1025.90 205.08 C 1027.61 204.79 1028.24 205.48 1027.79 207.17 C 1026.79 206.79 1026.16 206.10 1025.90 205.08 Z" />
<path fill="#424242" opacity="0.76" d=" M 168.18 211.18 C 167.79 209.45 168.46 208.78 170.18 209.18 C 169.83 210.15 169.16 210.82 168.18 211.18 Z" />
<path fill="#424242" opacity="0.76" d=" M 1029.82 209.17 C 1031.53 208.79 1032.19 209.46 1031.81 211.19 C 1030.82 210.82 1030.16 210.15 1029.82 209.17 Z" />
<path fill="#424242" opacity="0.76" d=" M 163.22 217.19 C 162.69 215.52 163.29 214.80 165.01 215.02 C 164.79 216.06 164.20 216.78 163.22 217.19 Z" />
<path fill="#424242" opacity="0.76" d=" M 1035.87 216.07 C 1037.57 215.76 1038.21 216.45 1037.78 218.15 C 1036.77 217.78 1036.13 217.09 1035.87 216.07 Z" />
<path fill="#424242" opacity="0.76" d=" M 675.99 228.06 C 676.60 226.45 677.55 226.25 678.84 227.44 C 677.96 228.12 677.01 228.32 675.99 228.06 Z" />
<path fill="#424242" opacity="0.76" d=" M 703.10 227.88 C 703.24 227.91 703.53 227.98 703.67 228.01 L 703.10 227.88 Z" />
<path fill="#424242" opacity="0.76" d=" M 673.23 228.18 C 673.65 228.10 674.48 227.94 674.89 227.86 C 674.47 228.16 673.64 228.77 673.22 229.07 L 673.23 228.18 Z" />
<path fill="#424242" opacity="0.76" d=" M 670.37 230.01 C 670.51 229.95 670.78 229.84 670.91 229.79 L 670.37 230.01 Z" />
<path fill="#424242" opacity="0.76" d=" M 709.00 229.70 C 710.04 228.40 710.54 228.58 710.50 230.26 C 710.12 230.12 709.37 229.84 709.00 229.70 Z" />
<path fill="#424242" opacity="0.76" d=" M 712.09 230.82 C 712.24 230.87 712.52 230.99 712.67 231.04 L 712.09 230.82 Z" />
<path fill="#424242" opacity="0.76" d=" M 714.40 231.81 C 714.55 231.88 714.84 232.02 714.99 232.09 L 714.40 231.81 Z" />
<path fill="#424242" opacity="0.76" d=" M 715.78 232.49 C 715.92 232.56 716.19 232.71 716.32 232.78 C 716.19 232.71 715.92 232.56 715.78 232.49 Z" />
<path fill="#424242" opacity="0.76" d=" M 717.92 233.69 C 718.05 233.77 718.32 233.93 718.46 234.02 L 717.92 233.69 Z" />
<path fill="#424242" opacity="0.76" d=" M 660.39 235.12 C 660.52 235.04 660.77 234.89 660.90 234.81 L 660.39 235.12 Z" />
<path fill="#424242" opacity="0.76" d=" M 657.64 236.99 C 657.74 236.91 657.94 236.77 658.04 236.70 C 657.94 236.77 657.74 236.91 657.64 236.99 Z" />
<path fill="#424242" opacity="0.76" d=" M 723.99 237.78 C 724.08 237.85 724.25 237.99 724.34 238.05 C 724.25 237.99 724.08 237.85 723.99 237.78 Z" />
<path fill="#424242" opacity="0.76" d=" M 110.38 286.72 C 110.44 286.63 110.55 286.46 110.60 286.38 C 110.55 286.46 110.44 286.63 110.38 286.72 Z" />
<path fill="#424242" opacity="0.76" d=" M 776.89 291.48 C 776.97 291.60 777.12 291.83 777.20 291.94 L 776.89 291.48 Z" />
<path fill="#424242" opacity="0.76" d=" M 105.38 294.71 C 105.43 294.63 105.54 294.46 105.59 294.37 C 105.54 294.46 105.43 294.63 105.38 294.71 Z" />
<path fill="#424242" opacity="0.76" d=" M 779.95 296.52 C 780.02 296.65 780.16 296.91 780.23 297.04 L 779.95 296.52 Z" />
<path fill="#424242" opacity="0.76" d=" M 780.91 298.43 C 780.97 298.56 781.10 298.82 781.16 298.96 L 780.91 298.43 Z" />
<path fill="#424242" opacity="0.76" d=" M 782.98 303.38 C 783.03 303.52 783.13 303.80 783.18 303.94 L 782.98 303.38 Z" />
<path fill="#424242" opacity="0.76" d=" M 98.26 306.57 C 98.31 306.49 98.41 306.32 98.46 306.23 C 98.41 306.32 98.31 306.49 98.26 306.57 Z" />
<path fill="#424242" opacity="0.76" d=" M 783.93 306.34 C 783.97 306.48 784.05 306.77 784.09 306.92 L 783.93 306.34 Z" />
<path fill="#424242" opacity="0.76" d=" M 784.81 310.33 L 785.60 310.15 L 786.20 310.86 C 785.93 311.12 785.40 311.64 785.13 311.90 C 785.05 311.51 784.89 310.72 784.81 310.33 Z" />
<path fill="#424242" opacity="0.76" d=" M 94.22 313.55 C 94.27 313.46 94.36 313.29 94.41 313.21 C 94.36 313.29 94.27 313.46 94.22 313.55 Z" />
<path fill="#424242" opacity="0.76" d=" M 85.39 329.72 C 85.44 329.62 85.54 329.43 85.58 329.33 C 85.54 329.43 85.44 329.62 85.39 329.72 Z" />
<path fill="#424242" opacity="0.76" d=" M 1114.41 329.33 C 1114.46 329.43 1114.56 329.62 1114.61 329.72 C 1114.56 329.62 1114.46 329.43 1114.41 329.33 Z" />
<path fill="#424242" opacity="0.76" d=" M 83.36 333.73 C 83.40 333.64 83.50 333.44 83.55 333.35 C 83.50 333.44 83.40 333.64 83.36 333.73 Z" />
<path fill="#424242" opacity="0.76" d=" M 785.06 332.97 C 785.03 333.12 784.96 333.42 784.93 333.57 L 785.06 332.97 Z" />
<path fill="#424242" opacity="0.76" d=" M 1116.45 333.34 C 1116.50 333.44 1116.60 333.63 1116.65 333.72 C 1116.60 333.63 1116.50 333.44 1116.45 333.34 Z" />
<path fill="#424242" opacity="0.76" d=" M 784.09 337.07 C 784.05 337.22 783.97 337.51 783.93 337.66 L 784.09 337.07 Z" />
<path fill="#424242" opacity="0.76" d=" M 783.17 340.13 C 783.13 340.27 783.03 340.56 782.98 340.70 L 783.17 340.13 Z" />
<path fill="#424242" opacity="0.76" d=" M 1120.63 341.65 C 1120.70 341.80 1120.84 342.10 1120.91 342.25 C 1120.84 342.10 1120.70 341.80 1120.63 341.65 Z" />
<path fill="#424242" opacity="0.76" d=" M 78.23 342.64 L 79.11 342.51 C 78.85 343.00 78.33 343.99 78.08 344.48 C 78.11 344.02 78.19 343.10 78.23 342.64 Z" />
<path fill="#424242" opacity="0.76" d=" M 1121.34 343.16 C 1121.43 343.35 1121.62 343.75 1121.72 343.94 C 1121.62 343.75 1121.43 343.35 1121.34 343.16 Z" />
<path fill="#424242" opacity="0.76" d=" M 77.24 345.98 C 77.32 345.83 77.49 345.52 77.57 345.37 C 77.49 345.52 77.32 345.83 77.24 345.98 Z" />
<path fill="#424242" opacity="0.76" d=" M 781.24 345.03 C 781.18 345.17 781.05 345.45 780.98 345.59 L 781.24 345.03 Z" />
<path fill="#424242" opacity="0.76" d=" M 1122.25 345.02 C 1122.35 345.21 1122.55 345.60 1122.64 345.80 C 1122.55 345.60 1122.35 345.21 1122.25 345.02 Z" />
<path fill="#424242" opacity="0.76" d=" M 76.55 347.32 C 76.63 347.17 76.78 346.88 76.85 346.73 C 76.78 346.88 76.63 347.17 76.55 347.32 Z" />
<path fill="#424242" opacity="0.76" d=" M 780.26 347.05 C 780.19 347.19 780.05 347.45 779.98 347.58 L 780.26 347.05 Z" />
<path fill="#424242" opacity="0.76" d=" M 1123.10 346.68 C 1123.18 346.84 1123.34 347.15 1123.42 347.31 C 1123.34 347.15 1123.18 346.84 1123.10 346.68 Z" />
<path fill="#424242" opacity="0.76" d=" M 779.23 348.95 C 779.15 349.08 779.00 349.34 778.92 349.46 L 779.23 348.95 Z" />
<path fill="#424242" opacity="0.76" d=" M 74.36 351.76 C 74.41 351.67 74.50 351.48 74.55 351.38 C 74.50 351.48 74.41 351.67 74.36 351.76 Z" />
<path fill="#424242" opacity="0.76" d=" M 1125.45 351.38 C 1125.50 351.48 1125.59 351.67 1125.64 351.76 C 1125.59 351.67 1125.50 351.48 1125.45 351.38 Z" />
<path fill="#424242" opacity="0.76" d=" M 65.38 371.72 C 65.42 371.63 65.51 371.44 65.55 371.35 C 65.51 371.44 65.42 371.63 65.38 371.72 Z" />
<path fill="#424242" opacity="0.76" d=" M 1134.44 371.31 C 1134.48 371.40 1134.56 371.59 1134.60 371.68 C 1134.56 371.59 1134.48 371.40 1134.44 371.31 Z" />
<path fill="#424242" opacity="0.76" d=" M 1139.46 383.38 C 1139.50 383.48 1139.58 383.68 1139.62 383.77 C 1139.58 383.68 1139.50 383.48 1139.46 383.38 Z" />
<path fill="#424242" opacity="0.76" d=" M 327.72 566.95 C 327.79 566.86 327.92 566.69 327.98 566.60 C 327.92 566.69 327.79 566.86 327.72 566.95 Z" />
<path fill="#424242" opacity="0.76" d=" M 323.77 573.04 C 323.84 572.91 323.99 572.65 324.06 572.52 L 323.77 573.04 Z" />
<path fill="#424242" opacity="0.76" d=" M 322.73 574.94 C 322.80 574.81 322.94 574.54 323.01 574.41 L 322.73 574.94 Z" />
<path fill="#424242" opacity="0.76" d=" M 321.76 576.88 C 321.83 576.75 321.95 576.48 322.02 576.34 L 321.76 576.88 Z" />
<path fill="#424242" opacity="0.76" d=" M 320.24 578.35 L 321.16 578.27 C 320.91 578.74 320.40 579.70 320.15 580.18 L 319.73 579.34 L 320.24 578.35 Z" />
<path fill="#424242" opacity="0.76" d=" M 319.71 581.64 C 319.75 581.49 319.83 581.19 319.88 581.04 L 319.71 581.64 Z" />
<path fill="#424242" opacity="0.76" d=" M 317.92 588.97 C 317.95 588.82 318.01 588.53 318.05 588.38 L 317.92 588.97 Z" />
<path fill="#424242" opacity="0.76" d=" M 319.99 618.72 C 319.94 618.58 319.84 618.30 319.79 618.16 L 319.99 618.72 Z" />
<path fill="#424242" opacity="0.76" d=" M 322.02 623.59 C 321.95 623.45 321.82 623.17 321.76 623.04 L 322.02 623.59 Z" />
<path fill="#424242" opacity="0.76" d=" M 323.02 625.58 C 322.95 625.45 322.81 625.19 322.74 625.05 L 323.02 625.58 Z" />
<path fill="#424242" opacity="0.76" d=" M 324.07 627.47 C 324.00 627.34 323.85 627.08 323.77 626.96 L 324.07 627.47 Z" />
<path fill="#424242" opacity="0.76" d=" M 1134.46 828.65 C 1134.50 828.56 1134.58 828.37 1134.62 828.28 C 1134.58 828.37 1134.50 828.56 1134.46 828.65 Z" />
<path fill="#424242" opacity="0.76" d=" M 74.38 848.28 C 74.43 848.37 74.52 848.55 74.56 848.64 C 74.52 848.55 74.43 848.37 74.38 848.28 Z" />
<path fill="#424242" opacity="0.76" d=" M 1125.44 848.64 C 1125.48 848.54 1125.57 848.36 1125.62 848.27 C 1125.57 848.36 1125.48 848.54 1125.44 848.64 Z" />
<path fill="#424242" opacity="0.76" d=" M 778.96 850.52 C 779.03 850.64 779.18 850.90 779.25 851.03 L 778.96 850.52 Z" />
<path fill="#424242" opacity="0.76" d=" M 780.00 852.41 C 780.07 852.54 780.21 852.81 780.28 852.94 L 780.00 852.41 Z" />
<path fill="#424242" opacity="0.76" d=" M 780.99 854.39 C 781.06 854.52 781.19 854.80 781.25 854.93 L 780.99 854.39 Z" />
<path fill="#424242" opacity="0.76" d=" M 781.91 856.40 C 781.97 856.54 782.09 856.82 782.14 856.96 L 781.91 856.40 Z" />
<path fill="#424242" opacity="0.76" d=" M 783.02 859.27 C 783.07 859.41 783.16 859.69 783.21 859.83 L 783.02 859.27 Z" />
<path fill="#424242" opacity="0.76" d=" M 783.87 862.21 L 784.65 862.00 L 785.28 862.69 C 785.03 862.96 784.52 863.50 784.26 863.77 C 784.16 863.38 783.96 862.60 783.87 862.21 Z" />
<path fill="#424242" opacity="0.76" d=" M 784.95 866.38 C 784.98 866.53 785.04 866.82 785.08 866.97 L 784.95 866.38 Z" />
<path fill="#424242" opacity="0.76" d=" M 85.38 870.28 C 85.43 870.37 85.52 870.55 85.57 870.64 C 85.52 870.55 85.43 870.37 85.38 870.28 Z" />
<path fill="#424242" opacity="0.76" d=" M 785.25 887.28 C 787.18 886.90 786.46 890.63 784.80 889.58 C 784.91 889.00 785.14 887.86 785.25 887.28 Z" />
<path fill="#424242" opacity="0.76" d=" M 96.40 890.28 C 96.46 890.38 96.58 890.59 96.64 890.70 C 96.58 890.59 96.46 890.38 96.40 890.28 Z" />
<path fill="#424242" opacity="0.76" d=" M 784.21 892.10 C 784.46 892.38 784.96 892.95 785.21 893.23 L 784.53 893.87 L 783.76 893.61 C 783.87 893.23 784.10 892.48 784.21 892.10 Z" />
<path fill="#424242" opacity="0.76" d=" M 98.22 893.37 C 98.28 893.48 98.39 893.68 98.45 893.78 C 98.39 893.68 98.28 893.48 98.22 893.37 Z" />
<path fill="#424242" opacity="0.76" d=" M 104.44 903.76 C 104.52 903.89 104.67 904.13 104.75 904.26 C 104.67 904.13 104.52 903.89 104.44 903.76 Z" />
<path fill="#424242" opacity="0.76" d=" M 1095.57 903.79 C 1095.62 903.71 1095.73 903.54 1095.78 903.46 C 1095.73 903.54 1095.62 903.71 1095.57 903.79 Z" />
<path fill="#424242" opacity="0.76" d=" M 105.13 904.87 C 105.20 904.99 105.35 905.23 105.43 905.35 C 105.35 905.23 105.20 904.99 105.13 904.87 Z" />
<path fill="#424242" opacity="0.76" d=" M 777.19 908.04 C 777.11 908.15 776.96 908.38 776.88 908.50 L 777.19 908.04 Z" />
<path fill="#424242" opacity="0.76" d=" M 109.22 911.45 C 109.27 911.53 109.38 911.70 109.43 911.78 C 109.38 911.70 109.27 911.53 109.22 911.45 Z" />
<path fill="#424242" opacity="0.76" d=" M 123.25 932.46 C 123.30 932.54 123.41 932.70 123.47 932.78 C 123.41 932.70 123.30 932.54 123.25 932.46 Z" />
<path fill="#424242" opacity="0.76" d=" M 1076.53 932.78 C 1076.59 932.70 1076.70 932.54 1076.75 932.46 C 1076.70 932.54 1076.59 932.70 1076.53 932.78 Z" />
<path fill="#424242" opacity="0.76" d=" M 1071.54 939.79 C 1071.60 939.72 1071.71 939.56 1071.77 939.48 C 1071.71 939.56 1071.60 939.72 1071.54 939.79 Z" />
<path fill="#424242" opacity="0.76" d=" M 143.26 959.46 C 143.32 959.53 143.44 959.69 143.50 959.76 C 143.44 959.69 143.32 959.53 143.26 959.46 Z" />
<path fill="#424242" opacity="0.76" d=" M 660.46 964.88 L 660.94 965.17 C 660.82 965.10 660.58 964.95 660.46 964.88 Z" />
<path fill="#424242" opacity="0.76" d=" M 718.18 966.23 L 718.68 965.95 C 718.55 966.02 718.30 966.16 718.18 966.23 Z" />
<path fill="#424242" opacity="0.76" d=" M 713.79 968.56 C 713.92 968.50 714.18 968.37 714.31 968.31 C 714.18 968.37 713.92 968.50 713.79 968.56 Z" />
<path fill="#424242" opacity="0.76" d=" M 712.44 969.14 L 713.03 968.90 C 712.88 968.96 712.59 969.08 712.44 969.14 Z" />
<path fill="#424242" opacity="0.76" d=" M 670.40 969.95 L 670.95 970.18 C 670.81 970.12 670.54 970.01 670.40 969.95 Z" />
<path fill="#424242" opacity="0.76" d=" M 709.09 970.33 C 709.47 970.19 710.24 969.91 710.62 969.77 C 710.63 971.44 710.12 971.62 709.09 970.33 Z" />
<path fill="#424242" opacity="0.76" d=" M 673.27 971.01 L 673.84 971.18 C 673.70 971.14 673.41 971.05 673.27 971.01 Z" />
<path fill="#424242" opacity="0.76" d=" M 706.99 971.12 L 707.56 970.93 C 707.41 970.98 707.13 971.07 706.99 971.12 Z" />
<path fill="#424242" opacity="0.76" d=" M 676.40 971.78 C 676.79 971.88 677.56 972.06 677.95 972.16 C 677.07 973.57 676.55 973.44 676.40 971.78 Z" />
<path fill="#424242" opacity="0.76" d=" M 703.13 972.15 L 703.69 972.02 C 703.55 972.05 703.27 972.12 703.13 972.15 Z" />
<path fill="#424242" opacity="0.76" d=" M 163.32 983.41 C 163.38 983.48 163.51 983.63 163.58 983.71 C 163.51 983.63 163.38 983.48 163.32 983.41 Z" />
<path fill="#424242" opacity="0.76" d=" M 1036.41 983.69 C 1036.48 983.62 1036.61 983.47 1036.67 983.39 C 1036.61 983.47 1036.48 983.62 1036.41 983.69 Z" />
<path fill="#424242" opacity="0.76" d=" M 168.18 988.81 C 169.16 989.16 169.82 989.83 170.18 990.82 C 168.46 991.20 167.79 990.53 168.18 988.81 Z" />
<path fill="#424242" opacity="0.76" d=" M 172.19 992.85 C 173.17 993.21 173.80 993.90 174.07 994.94 C 172.35 995.21 171.72 994.51 172.19 992.85 Z" />
<path fill="#424242" opacity="0.76" d=" M 205.05 1025.94 C 206.07 1026.19 206.77 1026.82 207.15 1027.82 C 205.47 1028.28 204.77 1027.65 205.05 1025.94 Z" />
<path fill="#424242" opacity="0.76" d=" M 209.18 1029.82 C 210.16 1030.16 210.83 1030.83 211.19 1031.83 C 209.45 1032.19 208.79 1031.52 209.18 1029.82 Z" />
<path fill="#424242" opacity="0.76" d=" M 216.03 1035.91 C 217.05 1036.15 217.76 1036.77 218.15 1037.77 C 216.47 1038.23 215.76 1037.61 216.03 1035.91 Z" />
<path fill="#424242" opacity="0.76" d=" M 981.85 1037.77 C 982.21 1036.77 982.90 1036.14 983.94 1035.89 C 984.22 1037.58 983.52 1038.21 981.85 1037.77 Z" />
<path fill="#424242" opacity="0.76" d=" M 905.33 1094.60 C 905.42 1094.55 905.58 1094.45 905.67 1094.39 C 905.58 1094.45 905.42 1094.55 905.33 1094.60 Z" />
<path fill="#424242" opacity="0.76" d=" M 893.43 1101.74 C 893.51 1101.69 893.68 1101.59 893.77 1101.54 C 893.68 1101.59 893.51 1101.69 893.43 1101.74 Z" />
<path fill="#424242" opacity="0.76" d=" M 868.29 1115.63 C 868.38 1115.58 868.56 1115.49 868.65 1115.44 C 868.56 1115.49 868.38 1115.58 868.29 1115.63 Z" />
<path fill="#424242" opacity="0.76" d=" M 347.63 1123.60 C 347.76 1123.66 348.02 1123.78 348.15 1123.84 C 348.02 1123.78 347.76 1123.66 347.63 1123.60 Z" />
<path fill="#424242" opacity="0.76" d=" M 348.82 1124.17 C 348.96 1124.23 349.22 1124.37 349.36 1124.43 C 349.22 1124.37 348.96 1124.23 348.82 1124.17 Z" />
<path fill="#424242" opacity="0.76" d=" M 364.32 1131.41 C 364.41 1131.45 364.60 1131.53 364.69 1131.57 C 364.60 1131.53 364.41 1131.45 364.32 1131.41 Z" />
<path fill="#424242" opacity="0.76" d=" M 378.39 1137.44 C 378.49 1137.48 378.68 1137.56 378.78 1137.60 C 378.68 1137.56 378.49 1137.48 378.39 1137.44 Z" />
<path fill="#424242" opacity="0.76" d=" M 563.84 1180.12 C 569.98 1180.29 576.16 1179.67 582.24 1180.87 C 576.10 1180.98 569.93 1180.97 563.84 1180.12 Z" />
</g>
<g id="#fefefefe">
<path fill="#fefefe" opacity="1.00" d=" M 678.84 227.44 C 686.88 226.37 695.12 226.27 703.10 227.88 L 703.67 228.01 C 704.77 228.26 705.87 228.56 706.96 228.91 L 707.50 229.10 C 707.87 229.25 708.62 229.55 709.00 229.70 C 709.37 229.84 710.12 230.12 710.50 230.26 C 710.90 230.40 711.70 230.68 712.09 230.82 L 712.67 231.04 C 713.10 231.23 713.97 231.62 714.40 231.81 L 714.99 232.09 L 715.78 232.49 C 715.92 232.56 716.19 232.71 716.32 232.78 C 716.72 233.01 717.52 233.46 717.92 233.69 L 718.46 234.02 C 720.35 235.18 722.21 236.43 723.99 237.78 C 724.08 237.85 724.25 237.99 724.34 238.05 C 736.49 249.07 747.68 261.12 759.41 272.59 C 765.41 278.71 771.87 284.49 776.89 291.48 L 777.20 291.94 C 778.17 293.42 779.08 294.95 779.95 296.52 L 780.23 297.04 C 780.40 297.39 780.74 298.08 780.91 298.43 L 781.16 298.96 C 781.31 299.34 781.63 300.11 781.79 300.49 C 781.94 300.85 782.24 301.56 782.39 301.91 C 782.54 302.28 782.83 303.02 782.98 303.38 L 783.18 303.94 C 783.37 304.54 783.74 305.74 783.93 306.34 L 784.09 306.92 C 784.38 308.04 784.62 309.18 784.81 310.33 C 784.89 310.72 785.05 311.51 785.13 311.90 C 785.48 313.23 785.80 314.57 785.97 315.95 C 786.40 320.00 786.41 324.07 785.96 328.13 C 785.74 329.75 785.37 331.36 785.06 332.97 L 784.93 333.57 C 784.66 334.73 784.38 335.90 784.09 337.07 L 783.93 337.66 C 783.74 338.27 783.36 339.51 783.17 340.13 L 782.98 340.70 C 782.76 341.29 782.33 342.46 782.11 343.05 L 781.89 343.58 C 781.73 343.94 781.40 344.67 781.24 345.03 L 780.98 345.59 C 780.80 345.95 780.44 346.69 780.26 347.05 L 779.98 347.58 C 779.80 347.93 779.42 348.61 779.23 348.95 L 778.92 349.46 C 776.70 352.97 774.30 356.37 771.76 359.65 C 749.22 382.80 726.10 405.40 703.33 428.33 C 646.18 485.58 588.85 542.65 531.81 600.00 C 599.19 667.68 666.85 735.09 734.34 802.66 C 747.01 815.48 759.99 828.00 772.45 841.02 C 773.65 842.47 774.69 844.04 775.80 845.59 L 776.10 846.02 C 777.09 847.48 778.05 848.97 778.96 850.52 L 779.25 851.03 C 779.44 851.37 779.82 852.07 780.00 852.41 L 780.28 852.94 C 780.46 853.30 780.81 854.03 780.99 854.39 L 781.25 854.93 C 781.42 855.30 781.75 856.03 781.91 856.40 L 782.14 856.96 C 782.36 857.54 782.80 858.69 783.02 859.27 L 783.21 859.83 C 783.37 860.42 783.70 861.61 783.87 862.21 C 783.96 862.60 784.16 863.38 784.26 863.77 C 784.43 864.42 784.78 865.73 784.95 866.38 L 785.08 866.97 C 785.40 868.58 785.76 870.21 785.96 871.87 C 786.40 875.91 786.39 879.99 785.97 884.05 C 785.78 885.13 785.54 886.21 785.25 887.28 C 785.14 887.86 784.91 889.00 784.80 889.58 C 784.65 890.21 784.36 891.47 784.21 892.10 C 784.10 892.48 783.87 893.23 783.76 893.61 C 782.80 896.83 781.50 899.95 780.09 903.01 L 779.85 903.50 C 779.04 905.04 778.15 906.56 777.19 908.04 L 776.88 908.50 C 772.43 914.74 766.79 919.99 761.41 925.41 C 749.53 937.23 737.77 949.17 725.82 960.92 C 724.89 961.27 724.14 961.86 723.56 962.66 C 722.57 963.50 721.48 964.19 720.41 964.90 L 719.93 965.20 C 719.62 965.38 718.99 965.76 718.68 965.95 L 718.18 966.23 C 716.90 966.94 715.61 967.64 714.31 968.31 C 714.18 968.37 713.92 968.50 713.79 968.56 L 713.03 968.90 L 712.44 969.14 C 711.99 969.30 711.08 969.61 710.62 969.77 C 710.24 969.91 709.47 970.19 709.09 970.33 C 708.71 970.48 707.94 970.78 707.56 970.93 L 706.99 971.12 C 705.89 971.45 704.79 971.75 703.69 972.02 L 703.13 972.15 C 697.07 973.25 690.86 973.67 684.72 973.34 C 683.61 973.20 682.52 973.10 681.43 973.03 C 680.24 972.82 679.08 972.53 677.95 972.16 C 677.56 972.06 676.79 971.88 676.40 971.78 C 675.76 971.63 674.48 971.33 673.84 971.18 L 673.27 971.01 C 672.69 970.80 671.53 970.39 670.95 970.18 L 670.40 969.95 C 667.16 968.53 664.00 966.93 660.94 965.17 L 660.46 964.88 C 659.61 964.34 658.78 963.79 657.99 963.22 L 657.53 962.88 C 651.85 958.48 647.01 953.13 641.90 948.11 C 539.69 845.98 437.64 743.69 335.38 641.61 C 331.03 637.40 327.21 632.65 324.07 627.47 L 323.77 626.96 C 323.58 626.61 323.20 625.93 323.02 625.58 L 322.74 625.05 C 322.56 624.69 322.20 623.96 322.02 623.59 L 321.76 623.04 C 321.59 622.67 321.27 621.94 321.10 621.58 L 320.88 621.04 C 320.66 620.46 320.21 619.30 319.99 618.72 L 319.79 618.16 C 319.61 617.55 319.24 616.32 319.05 615.71 C 318.94 615.34 318.73 614.59 318.62 614.21 C 318.48 613.59 318.20 612.36 318.06 611.74 C 317.98 611.36 317.82 610.60 317.74 610.22 C 317.40 608.88 317.14 607.53 317.01 606.16 C 316.56 602.07 316.56 597.94 317.04 593.85 C 317.25 592.21 317.60 590.59 317.92 588.97 L 318.05 588.38 C 318.20 587.73 318.52 586.44 318.68 585.79 C 318.78 585.41 318.97 584.65 319.07 584.27 C 319.23 583.61 319.55 582.30 319.71 581.64 L 319.88 581.04 L 320.15 580.18 C 320.40 579.70 320.91 578.74 321.16 578.27 C 321.31 577.92 321.61 577.23 321.76 576.88 L 322.02 576.34 C 322.20 575.99 322.55 575.29 322.73 574.94 L 323.01 574.41 C 323.20 574.07 323.58 573.38 323.77 573.04 L 324.06 572.52 C 325.19 570.60 326.41 568.74 327.72 566.95 C 327.79 566.86 327.92 566.69 327.98 566.60 C 331.67 561.80 336.16 557.70 340.39 553.39 C 392.56 501.23 444.72 449.06 496.89 396.89 C 548.57 345.56 599.78 293.76 651.44 242.41 C 653.40 240.49 655.45 238.65 657.64 236.99 C 657.74 236.91 657.94 236.77 658.04 236.70 C 658.63 236.30 659.80 235.51 660.39 235.12 L 660.90 234.81 C 663.96 233.04 667.13 231.43 670.37 230.01 L 670.91 229.79 C 671.49 229.61 672.64 229.25 673.22 229.07 C 673.64 228.77 674.47 228.16 674.89 227.86 L 675.99 228.06 C 677.01 228.32 677.96 228.12 678.84 227.44 Z" />
</g>
</svg>
