<?xml version="1.0" encoding="UTF-8" ?>
<!DOCTYPE svg PUBLIC "-//W3C//DTD SVG 1.1//EN" "http://www.w3.org/Graphics/SVG/1.1/DTD/svg11.dtd">
<svg width="1200pt" height="1200pt" viewBox="0 0 1200 1200" version="1.1" xmlns="http://www.w3.org/2000/svg">
<g id="#e1c0b0ff">
<path fill="#e1c0b0" opacity="1.00" d=" M 580.31 19.22 C 596.19 18.27 612.13 18.81 628.00 19.56 C 699.36 22.73 770.14 39.47 835.44 68.48 C 913.00 102.87 982.90 154.46 1038.47 218.52 C 1094.18 282.35 1135.65 358.57 1158.89 440.06 C 1174.40 494.25 1181.69 550.68 1181.20 606.99 C 1180.02 692.64 1160.26 778.23 1122.25 855.11 C 1071.67 959.23 989.01 1047.24 888.53 1104.61 C 814.26 1147.27 730.34 1173.08 644.94 1179.43 C 587.60 1183.93 529.63 1179.74 473.46 1167.33 C 390.62 1149.00 311.99 1112.05 244.92 1060.10 C 160.96 995.50 95.25 907.40 57.34 808.43 C 35.25 751.15 22.53 690.28 19.56 629.01 C 18.89 611.99 18.10 594.90 19.41 577.89 C 19.81 557.51 21.93 537.22 24.70 517.04 C 33.55 455.14 52.45 394.66 80.69 338.86 C 105.54 289.19 137.87 243.32 175.72 202.74 C 225.29 149.87 284.76 106.24 350.24 75.10 C 421.96 40.83 500.90 21.70 580.31 19.22 M 493.03 228.92 C 492.90 228.97 492.62 229.06 492.48 229.10 C 488.86 230.40 485.33 231.95 481.96 233.80 C 481.84 233.87 481.60 234.00 481.48 234.07 C 476.27 237.16 471.87 241.36 467.58 245.58 C 457.09 256.09 446.60 266.60 436.08 277.08 C 431.52 281.67 426.83 286.20 423.12 291.52 C 423.05 291.63 422.89 291.87 422.82 291.98 C 415.31 304.07 412.20 318.96 414.96 332.98 C 414.99 333.12 415.05 333.41 415.08 333.55 C 415.84 336.75 416.79 339.91 417.93 343.00 C 417.98 343.13 418.09 343.39 418.14 343.53 C 418.94 345.40 419.83 347.24 420.82 349.03 C 420.89 349.16 421.03 349.40 421.09 349.52 C 425.88 357.90 433.22 364.29 439.91 371.09 C 508.07 439.26 576.24 507.42 644.41 575.59 C 652.36 583.79 660.82 591.52 668.48 600.00 C 663.49 605.82 657.70 610.87 652.41 616.41 C 578.73 690.06 505.11 763.78 431.40 837.41 C 426.37 842.34 422.24 848.14 419.09 854.44 C 419.03 854.57 418.91 854.82 418.85 854.95 C 418.16 856.39 417.55 857.87 417.01 859.39 C 416.96 859.53 416.86 859.81 416.81 859.95 C 416.63 860.55 416.26 861.75 416.07 862.35 C 416.04 862.49 415.97 862.78 415.93 862.92 C 413.07 873.78 413.44 885.35 416.94 896.02 C 416.98 896.15 417.07 896.42 417.12 896.55 C 417.91 898.74 418.83 900.90 419.87 903.00 C 419.93 903.13 420.06 903.38 420.13 903.51 C 425.85 914.12 435.36 921.83 443.58 930.41 C 454.31 940.88 464.51 951.91 475.65 961.94 C 475.74 962.02 475.92 962.16 476.02 962.23 C 490.96 973.53 511.48 976.41 529.07 970.13 C 529.21 970.08 529.47 969.98 529.60 969.94 C 533.96 968.15 538.09 965.83 542.00 963.23 C 542.10 963.16 542.29 963.02 542.39 962.95 C 549.03 957.80 554.56 951.42 560.60 945.61 C 587.43 918.77 614.28 891.94 641.09 865.10 C 675.58 830.25 710.53 795.86 745.10 761.10 C 782.10 724.10 819.11 687.10 856.10 650.10 C 863.12 642.97 870.81 636.27 875.88 627.51 C 875.96 627.39 876.10 627.14 876.17 627.01 C 876.78 625.88 877.35 624.74 877.92 623.59 C 877.98 623.46 878.10 623.20 878.16 623.07 C 878.81 621.60 879.41 620.11 879.98 618.61 C 880.03 618.47 880.14 618.19 880.19 618.05 C 880.38 617.45 880.76 616.25 880.95 615.66 C 880.99 615.51 881.07 615.22 881.11 615.08 C 881.41 613.91 881.69 612.75 881.94 611.59 C 881.96 611.44 882.02 611.15 882.05 611.00 C 883.33 603.76 883.39 596.26 882.04 589.03 C 882.01 588.88 881.95 588.59 881.92 588.45 C 881.41 586.24 880.81 584.06 880.12 581.91 C 880.08 581.77 879.98 581.50 879.94 581.37 C 879.39 579.86 878.80 578.38 878.16 576.93 C 878.10 576.80 877.98 576.54 877.92 576.41 C 877.36 575.24 876.79 574.09 876.17 572.98 C 876.10 572.86 875.96 572.61 875.89 572.49 C 872.78 567.30 868.94 562.59 864.61 558.39 C 762.19 456.14 659.97 353.69 557.61 251.40 C 552.65 246.54 547.97 241.36 542.46 237.12 C 542.35 237.03 542.12 236.86 542.00 236.78 C 541.19 236.19 540.37 235.64 539.54 235.11 C 539.42 235.04 539.18 234.90 539.06 234.82 C 536.00 233.06 532.85 231.43 529.59 230.09 C 529.46 230.04 529.19 229.94 529.06 229.89 C 517.52 225.89 504.76 225.51 493.03 228.92 Z" />
</g>
<g id="#fefefefe">
<path fill="#fefefe" opacity="1.00" d=" M 493.03 228.92 C 504.76 225.51 517.52 225.89 529.06 229.89 L 529.59 230.09 C 532.85 231.43 536.00 233.06 539.06 234.82 L 539.54 235.11 C 540.37 235.64 541.19 236.19 542.00 236.78 L 542.46 237.12 C 547.97 241.36 552.65 246.54 557.61 251.40 C 659.97 353.69 762.19 456.14 864.61 558.39 C 868.94 562.59 872.78 567.30 875.89 572.49 L 876.17 572.98 C 876.79 574.09 877.36 575.24 877.92 576.41 L 878.16 576.93 C 878.80 578.38 879.39 579.86 879.94 581.37 L 880.12 581.91 C 880.81 584.06 881.41 586.24 881.92 588.45 L 882.04 589.03 C 883.39 596.26 883.33 603.76 882.05 611.00 L 881.94 611.59 C 881.69 612.75 881.41 613.91 881.11 615.08 L 880.95 615.66 C 880.76 616.25 880.38 617.45 880.19 618.05 L 879.98 618.61 C 879.41 620.11 878.81 621.60 878.16 623.07 L 877.92 623.59 C 877.35 624.74 876.78 625.88 876.17 627.01 L 875.88 627.51 C 870.81 636.27 863.12 642.97 856.10 650.10 C 819.11 687.10 782.10 724.10 745.10 761.10 C 710.53 795.86 675.58 830.25 641.09 865.10 C 614.28 891.94 587.43 918.77 560.60 945.61 C 554.56 951.42 549.03 957.80 542.39 962.95 C 542.29 963.02 542.10 963.16 542.00 963.23 C 538.09 965.83 533.96 968.15 529.60 969.94 L 529.07 970.13 C 511.48 976.41 490.96 973.53 476.02 962.23 C 475.92 962.16 475.74 962.02 475.65 961.94 C 464.51 951.91 454.31 940.88 443.58 930.41 C 435.36 921.83 425.85 914.12 420.13 903.51 L 419.87 903.00 C 418.83 900.90 417.91 898.74 417.12 896.55 L 416.94 896.02 C 413.44 885.35 413.07 873.78 415.93 862.92 L 416.07 862.35 C 416.26 861.75 416.63 860.55 416.81 859.95 L 417.01 859.39 C 417.55 857.87 418.16 856.39 418.85 854.95 L 419.09 854.44 C 422.24 848.14 426.37 842.34 431.40 837.41 C 505.11 763.78 578.73 690.06 652.41 616.41 C 657.70 610.87 663.49 605.82 668.48 600.00 C 660.82 591.52 652.36 583.79 644.41 575.59 C 576.24 507.42 508.07 439.26 439.91 371.09 C 433.22 364.29 425.88 357.90 421.09 349.52 L 420.82 349.03 C 419.83 347.24 418.94 345.40 418.14 343.53 L 417.93 343.00 C 416.79 339.91 415.84 336.75 415.08 333.55 L 414.96 332.98 C 412.20 318.96 415.31 304.07 422.82 291.98 L 423.12 291.52 C 426.83 286.20 431.52 281.67 436.08 277.08 C 446.60 266.60 457.09 256.09 467.58 245.58 C 471.87 241.36 476.27 237.16 481.48 234.07 L 481.96 233.80 C 485.33 231.95 488.86 230.40 492.48 229.10 L 493.03 228.92 Z" />
</g>
</svg>
