<?xml version="1.0" encoding="UTF-8" ?>
<!DOCTYPE svg PUBLIC "-//W3C//DTD SVG 1.1//EN" "http://www.w3.org/Graphics/SVG/1.1/DTD/svg11.dtd">
<svg width="225pt" height="225pt" viewBox="0 0 225 225" version="1.1" xmlns="http://www.w3.org/2000/svg">
<g id="#ffffffff">
</g>
<g id="#000000ff">
<path fill="#000000" opacity="1.00" d=" M 132.43 2.45 C 146.02 2.24 159.62 2.44 173.21 2.23 C 173.93 4.43 173.71 6.75 173.72 9.02 C 173.64 19.62 173.73 30.23 173.60 40.83 C 164.32 40.96 155.03 40.60 145.76 41.00 C 140.17 41.26 135.17 46.28 135.53 51.98 C 135.60 59.33 135.30 66.69 135.56 74.04 C 135.46 75.88 137.78 75.57 138.96 75.68 C 150.64 75.63 162.33 75.66 174.01 75.59 C 172.08 87.96 171.02 100.46 169.26 112.86 C 157.97 112.75 146.67 112.83 135.38 112.82 C 135.43 149.70 135.38 186.57 135.41 223.45 C 119.59 223.56 103.76 223.51 87.94 223.51 C 86.38 223.85 85.02 222.56 85.40 220.98 C 85.38 184.99 85.38 148.99 85.41 113.00 C 77.30 112.99 69.19 113.02 61.08 112.99 C 61.06 100.57 61.18 88.14 61.01 75.73 C 68.02 75.73 75.02 75.72 82.03 75.74 C 83.23 75.72 85.63 75.89 85.37 74.00 C 85.55 63.22 85.25 52.43 85.52 41.65 C 85.77 31.26 89.90 20.69 97.94 13.87 C 107.37 5.71 120.22 2.73 132.43 2.45 Z" />
</g>
</svg>
