<?xml version="1.0" encoding="UTF-8" ?>
<!DOCTYPE svg PUBLIC "-//W3C//DTD SVG 1.1//EN" "http://www.w3.org/Graphics/SVG/1.1/DTD/svg11.dtd">
<svg width="960pt" height="960pt" viewBox="0 0 960 960" version="1.1" xmlns="http://www.w3.org/2000/svg">
<g id="#ffffffff">
</g>
<g id="#000000ff">
<path fill="#000000" opacity="1.00" d=" M 283.50 198.83 C 297.74 196.89 312.66 199.56 325.03 206.99 C 338.90 215.07 349.49 228.61 353.85 244.07 C 358.55 260.57 356.53 278.99 347.85 293.84 C 339.84 307.73 326.36 318.32 311.00 322.89 C 297.35 327.11 282.27 326.42 269.03 321.06 C 255.59 315.75 244.02 305.75 236.97 293.13 C 227.43 276.15 226.45 254.79 233.93 236.86 C 242.27 216.65 261.86 201.75 283.50 198.83 Z" />
<path fill="#000000" opacity="1.00" d=" M 569.55 375.64 C 586.79 367.06 605.80 362.36 624.94 360.68 C 644.05 359.27 663.80 360.08 681.86 367.07 C 698.81 373.49 713.50 385.16 724.43 399.53 C 734.81 413.14 742.00 428.94 747.06 445.22 C 754.41 469.40 757.10 494.81 756.82 520.02 C 756.82 583.34 756.83 646.66 756.82 709.98 C 756.74 713.07 757.30 716.26 756.31 719.28 C 740.22 719.83 724.10 719.39 708.00 719.39 C 689.34 719.40 670.69 719.37 652.04 719.41 C 650.56 719.48 649.15 719.17 647.78 718.70 C 647.94 664.11 647.81 609.53 647.85 554.95 C 647.65 542.60 648.31 530.22 647.42 517.89 C 645.38 500.24 639.13 482.34 626.68 469.31 C 608.11 450.04 574.71 448.39 554.09 465.31 C 541.73 475.36 534.08 490.07 529.58 505.11 C 526.62 514.81 527.52 525.03 527.40 535.02 C 527.40 592.33 527.40 649.65 527.40 706.97 C 527.40 710.43 527.57 713.90 527.24 717.36 C 511.53 718.55 495.73 717.91 479.98 718.09 C 459.57 718.06 439.16 718.05 418.77 717.34 C 418.03 698.92 418.63 680.46 418.44 662.02 C 418.50 565.87 418.29 469.72 418.55 373.57 C 420.97 372.77 423.51 372.80 426.03 372.92 C 459.48 372.68 492.95 372.92 526.41 372.79 C 527.02 374.12 527.53 375.51 527.41 377.01 C 527.45 388.25 527.26 399.50 527.50 410.74 C 528.95 409.40 530.28 407.95 531.49 406.40 C 541.63 393.44 554.82 382.95 569.55 375.64 Z" />
<path fill="#000000" opacity="1.00" d=" M 238.26 374.99 C 238.14 372.40 241.36 373.10 243.02 372.85 C 276.00 373.06 308.99 372.89 341.97 372.94 C 343.53 372.96 345.10 373.08 346.67 373.23 C 347.22 377.79 347.03 382.39 347.05 386.98 C 347.06 497.10 347.04 607.21 347.06 717.33 C 343.06 718.02 338.99 717.79 334.96 717.81 C 306.62 717.81 278.28 717.81 249.95 717.81 C 246.13 717.80 242.31 717.92 238.52 717.55 C 237.82 702.73 238.41 687.85 238.21 673.01 C 238.24 573.67 238.15 474.33 238.26 374.99 Z" />
</g>
</svg>
