<?xml version="1.0" encoding="UTF-8" ?>
<!DOCTYPE svg PUBLIC "-//W3C//DTD SVG 1.1//EN" "http://www.w3.org/Graphics/SVG/1.1/DTD/svg11.dtd">
<svg width="512pt" height="512pt" viewBox="0 0 512 512" version="1.1" xmlns="http://www.w3.org/2000/svg">
<g id="#000000ff">
<path fill="#000000" opacity="1.00" d=" M 262.67 0.00 L 264.34 0.00 C 272.86 0.61 281.45 0.32 289.91 1.74 C 320.83 4.88 351.47 14.22 377.60 31.30 C 393.72 41.79 407.98 55.14 419.29 70.70 C 435.23 92.45 445.23 118.34 448.94 144.99 C 450.26 151.23 449.99 157.64 450.74 163.95 C 451.78 176.71 449.93 189.46 448.19 202.08 C 443.72 227.23 433.89 251.42 419.31 272.41 C 395.89 306.33 360.49 332.74 320.05 342.10 C 296.87 347.38 272.41 345.49 249.92 338.11 C 234.21 333.41 219.59 324.49 209.20 311.68 C 196.06 351.02 183.39 390.63 166.65 428.63 C 162.62 438.33 158.01 447.77 153.10 457.06 C 143.54 477.17 128.56 493.86 115.40 511.61 C 113.99 501.91 113.00 492.17 111.76 482.45 C 110.48 473.05 109.79 463.52 110.81 454.06 C 111.92 436.25 115.69 418.75 119.60 401.39 C 128.83 362.99 140.99 325.40 151.58 287.38 C 156.63 268.55 162.14 249.79 165.38 230.54 C 166.01 225.48 167.38 220.23 165.77 215.22 C 164.21 210.23 162.55 205.26 161.53 200.12 C 156.85 179.55 158.67 157.25 168.10 138.25 C 173.52 127.01 182.39 117.21 193.71 111.73 C 205.38 105.87 219.67 104.84 231.74 110.12 C 240.47 113.86 247.52 121.34 250.64 130.33 C 253.40 137.92 253.16 146.17 252.13 154.06 C 250.68 166.61 247.11 178.76 244.20 191.01 C 239.36 208.26 233.98 225.35 228.62 242.45 C 225.08 253.73 225.80 266.65 232.23 276.78 C 236.72 284.29 245.11 288.01 252.90 291.14 C 264.62 295.41 277.12 298.23 289.66 297.60 C 305.09 297.06 319.83 290.35 331.41 280.32 C 348.81 265.22 360.23 244.36 367.64 222.80 C 376.81 195.05 380.27 164.43 371.92 136.03 C 366.76 118.43 356.60 102.33 342.86 90.18 C 323.64 72.87 298.45 63.47 273.10 59.96 C 243.04 55.99 211.81 59.22 183.60 70.57 C 162.46 79.13 142.80 93.02 130.48 112.53 C 123.12 123.84 119.05 136.97 117.18 150.26 C 113.75 169.68 114.50 189.63 117.50 209.06 C 120.03 223.25 123.22 237.66 130.43 250.29 C 127.95 259.60 125.45 268.90 122.93 278.20 C 109.86 273.06 98.48 264.22 89.50 253.50 C 74.10 235.19 65.55 211.83 62.93 188.22 C 57.52 135.65 78.91 80.75 119.50 46.66 C 137.18 31.54 157.98 20.22 180.01 12.87 C 206.54 3.68 234.72 0.53 262.67 0.00 Z" />
</g>
</svg>
