<?xml version="1.0" encoding="UTF-8" ?>
<!DOCTYPE svg PUBLIC "-//W3C//DTD SVG 1.1//EN" "http://www.w3.org/Graphics/SVG/1.1/DTD/svg11.dtd">
<svg width="650pt" height="650pt" viewBox="0 0 650 650" version="1.1" xmlns="http://www.w3.org/2000/svg">
<g id="#badac9ff">
<path fill="#badac9" opacity="1.00" d=" M 311.40 172.31 C 317.38 171.97 323.37 171.20 329.37 171.62 C 333.70 172.19 338.09 171.99 342.42 172.63 C 358.22 174.96 373.75 179.56 387.84 187.16 C 412.38 200.25 432.65 221.08 445.00 246.00 C 461.42 278.70 463.49 318.22 450.52 352.44 C 446.13 364.52 439.72 375.83 432.13 386.19 C 420.50 400.85 407.23 414.32 397.51 430.41 C 390.11 442.91 387.68 457.54 387.10 471.86 C 387.41 477.77 382.00 483.42 376.03 483.02 C 341.98 482.97 307.94 483.02 273.89 483.00 C 267.94 483.17 262.77 477.71 262.90 471.84 C 262.25 459.22 260.67 446.32 254.91 434.88 C 245.99 416.94 230.90 403.27 219.01 387.41 C 205.78 370.64 197.10 350.49 193.14 329.55 C 192.51 325.84 192.13 322.11 191.61 318.39 C 191.60 314.58 190.99 310.81 190.97 307.00 C 190.83 302.19 191.67 297.42 191.59 292.60 C 194.44 264.20 206.41 236.76 225.68 215.66 C 240.31 199.44 259.00 186.97 279.51 179.45 C 289.82 175.85 300.53 173.45 311.40 172.31 M 323.26 201.07 C 315.86 202.94 313.68 213.72 319.32 218.65 C 322.93 222.27 328.38 221.21 332.99 221.76 C 353.61 223.03 374.04 232.76 386.55 249.46 C 397.78 263.73 402.85 282.07 403.12 300.05 C 403.04 303.43 403.86 307.14 406.80 309.20 C 412.17 314.14 422.54 311.20 423.72 303.74 C 424.75 290.84 422.47 277.80 418.43 265.57 C 415.55 258.91 412.75 252.19 408.98 245.98 C 404.85 238.71 399.12 232.57 393.77 226.21 C 378.11 210.95 356.65 202.19 334.93 200.80 C 331.05 200.60 327.08 200.16 323.26 201.07 Z" />
<path fill="#badac9" opacity="1.00" d=" M 270.36 488.54 C 273.16 487.79 276.10 488.15 278.96 488.08 C 311.97 488.08 344.97 488.10 377.98 488.05 C 381.91 487.67 386.45 489.13 388.02 493.07 C 390.70 497.87 387.42 505.02 381.80 505.53 C 344.84 505.46 307.91 505.67 270.95 505.43 C 262.73 504.02 262.16 490.58 270.36 488.54 Z" />
<path fill="#badac9" opacity="1.00" d=" M 270.21 510.26 C 282.41 509.23 294.71 510.04 306.96 509.79 C 331.00 509.90 355.05 509.68 379.10 509.82 C 382.80 509.51 386.65 511.24 388.12 514.80 C 390.94 520.32 386.41 527.52 380.20 527.34 C 344.76 527.41 309.32 527.39 273.89 527.38 C 269.20 527.69 264.21 523.98 264.46 519.01 C 264.10 515.20 266.55 511.40 270.21 510.26 Z" />
<path fill="#badac9" opacity="1.00" d=" M 272.26 531.22 C 308.20 531.01 344.15 531.16 380.09 531.14 C 385.88 530.94 390.48 537.19 388.48 542.65 C 387.48 546.52 383.56 548.87 379.68 548.67 C 345.12 548.81 310.54 548.69 275.97 548.76 C 272.27 549.04 268.13 548.30 265.86 545.05 C 262.14 539.84 265.66 531.51 272.26 531.22 Z" />
<path fill="#badac9" opacity="1.00" d=" M 267.77 553.02 C 306.96 553.14 346.14 553.02 385.33 553.07 C 381.02 564.09 370.14 572.75 358.08 572.93 C 337.02 572.94 315.96 572.95 294.90 572.92 C 282.83 572.68 272.35 563.82 267.77 553.02 Z" />
</g>
<g id="#ffffffff">
<path fill="#ffffff" opacity="1.00" d=" M 323.26 201.07 C 327.08 200.16 331.05 200.60 334.93 200.80 C 356.65 202.19 378.11 210.95 393.77 226.21 C 399.12 232.57 404.85 238.71 408.98 245.98 C 412.75 252.19 415.55 258.91 418.43 265.57 C 422.47 277.80 424.75 290.84 423.72 303.74 C 422.54 311.20 412.17 314.14 406.80 309.20 C 403.86 307.14 403.04 303.43 403.12 300.05 C 402.85 282.07 397.78 263.73 386.55 249.46 C 374.04 232.76 353.61 223.03 332.99 221.76 C 328.38 221.21 322.93 222.27 319.32 218.65 C 313.68 213.72 315.86 202.94 323.26 201.07 Z" />
</g>
</svg>
