<?xml version="1.0" encoding="UTF-8" ?>
<!DOCTYPE svg PUBLIC "-//W3C//DTD SVG 1.1//EN" "http://www.w3.org/Graphics/SVG/1.1/DTD/svg11.dtd">
<svg width="54pt" height="51pt" viewBox="0 0 54 51" version="1.1" xmlns="http://www.w3.org/2000/svg">
<g id="#f8d12dff">
<path fill="#f8d12d" opacity="1.00" d=" M 10.25 8.23 C 20.05 1.46 34.29 1.77 43.62 9.25 C 48.32 13.01 51.51 18.98 50.94 25.10 C 50.37 31.60 45.91 37.20 40.36 40.34 C 33.75 44.15 25.77 44.72 18.39 43.30 C 14.26 45.52 9.70 47.08 4.96 46.98 C 4.69 46.54 4.16 45.66 3.89 45.22 C 5.63 42.91 7.23 40.49 8.46 37.87 C 4.02 33.96 0.94 28.14 1.63 22.10 C 2.09 16.43 5.63 11.38 10.25 8.23 M 9.17 13.15 C 5.20 17.03 3.46 23.20 5.49 28.47 C 6.66 32.00 9.50 34.52 12.11 37.02 C 11.17 39.26 10.09 41.43 8.97 43.59 C 13.18 43.14 16.58 39.18 20.97 40.48 C 29.92 42.02 40.40 39.34 45.57 31.39 C 49.16 26.11 48.37 18.61 44.07 13.96 C 35.36 4.24 18.38 3.99 9.17 13.15 Z" />
</g>
<g id="#faf7f1ff">
<path fill="#faf7f1" opacity="1.00" d=" M 9.17 13.15 C 18.38 3.99 35.36 4.24 44.07 13.96 C 48.37 18.61 49.16 26.11 45.57 31.39 C 40.40 39.34 29.92 42.02 20.97 40.48 C 16.58 39.18 13.18 43.14 8.97 43.59 C 10.09 41.43 11.17 39.26 12.11 37.02 C 9.50 34.52 6.66 32.00 5.49 28.47 C 3.46 23.20 5.20 17.03 9.17 13.15 Z" />
</g>
</svg>
