<?xml version="1.0" encoding="UTF-8" ?>
<!DOCTYPE svg PUBLIC "-//W3C//DTD SVG 1.1//EN" "http://www.w3.org/Graphics/SVG/1.1/DTD/svg11.dtd">
<svg width="903pt" height="903pt" viewBox="0 0 903 903" version="1.1" xmlns="http://www.w3.org/2000/svg">
<g id="#eb6950ff">
<path fill="#eb6950" opacity="1.00" d=" M 587.92 215.89 C 594.44 211.00 602.58 209.25 609.80 205.69 C 609.89 208.68 610.01 211.66 610.12 214.65 C 614.55 213.43 618.97 212.22 623.41 211.02 C 623.24 213.93 623.10 216.85 622.95 219.77 C 626.17 220.00 629.39 220.25 632.61 220.48 C 631.20 224.09 629.77 227.70 628.35 231.31 C 631.39 231.34 634.43 231.39 637.48 231.43 C 637.32 238.01 637.18 244.58 637.08 251.16 C 640.41 250.09 643.74 249.02 647.08 247.95 C 645.85 251.03 644.63 254.10 643.41 257.17 C 647.60 264.51 650.61 272.49 652.36 280.76 C 653.52 279.63 654.69 278.51 655.87 277.39 C 658.73 288.13 662.02 298.76 664.63 309.57 C 666.55 309.21 668.48 308.86 670.41 308.51 C 670.27 315.23 670.10 321.94 669.96 328.66 C 673.42 327.43 676.88 326.20 680.35 324.98 C 678.26 329.33 676.15 333.67 674.05 338.01 C 677.19 338.20 680.34 338.41 683.50 338.61 C 683.35 345.55 683.19 352.50 683.04 359.45 C 685.23 357.18 687.41 354.90 689.61 352.64 C 688.91 417.37 689.98 482.11 688.96 546.83 C 695.42 546.35 701.88 545.82 708.35 545.29 C 708.42 548.02 708.53 550.75 708.62 553.49 C 712.17 552.26 715.71 551.03 719.27 549.81 C 717.15 553.33 714.99 556.83 712.87 560.35 C 715.72 558.88 718.57 557.40 721.44 555.94 C 724.75 564.38 729.30 572.72 729.47 582.00 C 729.43 623.57 730.05 665.16 728.81 706.72 C 722.97 712.92 717.25 719.24 711.42 725.46 C 708.09 724.66 704.73 724.01 701.39 723.34 C 701.96 726.25 702.52 729.16 703.09 732.07 C 698.86 730.93 694.63 729.77 690.40 728.64 C 688.03 738.41 685.09 748.05 683.22 757.95 C 682.75 760.50 681.12 762.61 679.84 764.81 C 673.27 775.49 664.93 785.50 653.95 791.84 C 648.09 795.26 641.49 797.30 634.76 798.08 C 636.04 799.50 637.31 800.92 638.60 802.36 C 619.56 801.26 600.35 804.72 581.44 801.32 C 573.47 799.74 565.38 797.13 559.06 791.83 C 554.81 788.44 550.16 785.57 546.00 782.09 C 538.11 773.76 530.85 763.83 529.56 752.10 C 527.97 753.42 526.37 754.74 524.77 756.05 C 524.55 625.39 524.91 494.73 524.53 364.08 C 525.17 352.76 529.13 342.03 532.59 331.35 C 534.04 332.15 535.52 332.95 536.98 333.77 C 539.46 322.75 542.70 311.93 545.55 301.00 C 546.86 302.25 548.19 303.51 549.51 304.78 C 550.33 296.24 553.48 288.00 558.53 281.07 C 557.14 277.92 555.73 274.78 554.34 271.63 C 557.81 272.73 561.27 273.84 564.73 274.95 C 564.50 268.19 564.25 261.44 564.02 254.68 C 565.93 255.17 567.86 255.66 569.79 256.16 C 572.33 245.66 575.76 235.42 578.81 225.07 C 579.49 225.28 580.86 225.70 581.54 225.92 C 582.47 221.97 584.62 218.31 587.92 215.89 M 590.43 318.10 C 600.93 318.04 611.42 318.01 621.92 317.89 C 616.34 305.95 610.75 294.03 605.13 282.11 C 600.22 294.10 595.33 306.11 590.43 318.10 M 567.89 361.79 C 568.05 484.87 567.08 607.96 568.30 731.04 C 569.98 752.98 594.86 768.79 615.64 762.81 C 622.40 760.60 629.03 757.15 633.68 751.64 C 640.85 743.20 643.08 731.77 643.33 720.98 C 643.16 601.25 643.21 481.52 643.24 361.80 C 618.12 361.70 593.00 361.71 567.89 361.79 Z" />
<path fill="#eb6950" opacity="1.00" d=" M 291.01 212.85 C 310.98 209.35 331.33 211.49 351.35 213.29 C 349.08 214.51 346.81 215.74 344.52 216.92 C 357.52 217.88 369.38 224.56 379.12 232.87 C 389.58 245.19 399.41 259.53 400.61 276.13 C 401.02 384.74 400.48 493.36 400.87 601.97 C 401.87 615.80 397.31 629.11 393.02 642.03 C 391.55 641.25 390.08 640.49 388.62 639.73 C 386.14 650.56 382.78 661.17 379.86 671.89 C 378.39 671.07 376.93 670.26 375.47 669.46 C 372.99 680.29 369.68 690.91 366.78 701.63 C 365.30 700.81 363.80 699.99 362.32 699.20 C 359.83 710.03 356.48 720.64 353.57 731.36 C 352.10 730.55 350.63 729.74 349.17 728.94 C 346.70 739.77 343.39 750.38 340.49 761.10 C 339.00 760.29 337.51 759.48 336.02 758.69 C 333.53 769.48 330.24 780.06 327.27 790.72 C 324.78 790.10 322.29 789.50 319.79 788.89 C 321.08 793.54 322.38 798.19 323.66 802.85 C 319.97 802.85 316.28 802.85 312.59 802.85 C 313.87 798.20 315.15 793.55 316.39 788.89 C 313.92 789.50 311.45 790.10 308.98 790.72 C 306.00 780.04 302.70 769.44 300.23 758.62 C 298.74 759.44 297.25 760.26 295.77 761.10 C 292.84 750.39 289.56 739.77 287.08 728.94 C 285.61 729.75 284.14 730.54 282.68 731.36 C 279.70 720.66 276.41 710.03 273.93 699.20 C 272.46 699.98 270.99 700.77 269.53 701.56 C 266.55 690.86 263.26 680.24 260.78 669.40 C 259.31 670.23 257.84 671.05 256.38 671.89 C 253.41 661.17 250.11 650.55 247.56 639.72 C 246.10 640.47 244.63 641.21 243.17 641.97 C 238.92 629.07 234.37 615.78 235.38 601.99 C 235.68 494.00 235.33 386.02 235.55 278.04 C 236.18 260.42 246.05 244.40 258.52 232.50 C 265.52 227.49 271.55 220.88 279.74 217.76 C 283.52 216.19 287.01 213.84 291.01 212.85 M 300.03 255.06 C 290.85 259.49 284.89 268.67 282.16 278.24 C 278.50 291.18 279.64 304.76 278.80 318.02 C 305.01 318.03 331.21 318.03 357.42 318.02 C 356.66 305.71 357.69 293.19 354.91 281.07 C 352.97 272.43 348.58 264.09 341.61 258.48 C 329.92 249.55 313.08 248.63 300.03 255.06 M 279.29 594.82 C 292.06 589.34 304.39 582.41 318.02 579.25 C 331.77 582.28 344.14 589.39 357.00 594.89 C 356.73 517.16 356.88 439.43 356.80 361.71 C 331.02 361.67 305.23 361.71 279.44 361.79 C 279.25 439.46 279.44 517.14 279.29 594.82 M 293.10 638.64 C 301.26 657.17 309.38 675.73 318.13 694.00 C 326.79 675.71 335.01 657.21 343.20 638.70 C 334.85 634.74 326.48 630.83 318.10 626.93 C 309.78 630.85 301.44 634.74 293.10 638.64 Z" />
</g>
<g id="#faf7f1ff">
<path fill="#faf7f1" opacity="1.00" d=" M 300.03 255.06 C 313.08 248.63 329.92 249.55 341.61 258.48 C 348.58 264.09 352.97 272.43 354.91 281.07 C 357.69 293.19 356.66 305.71 357.42 318.02 C 331.21 318.03 305.01 318.03 278.80 318.02 C 279.64 304.76 278.50 291.18 282.16 278.24 C 284.89 268.67 290.85 259.49 300.03 255.06 Z" />
<path fill="#faf7f1" opacity="1.00" d=" M 590.43 318.10 C 595.33 306.11 600.22 294.10 605.13 282.11 C 610.75 294.03 616.34 305.95 621.92 317.89 C 611.42 318.01 600.93 318.04 590.43 318.10 Z" />
<path fill="#faf7f1" opacity="1.00" d=" M 279.29 594.82 C 279.44 517.14 279.25 439.46 279.44 361.79 C 305.23 361.71 331.02 361.67 356.80 361.71 C 356.88 439.43 356.73 517.16 357.00 594.89 C 344.14 589.39 331.77 582.28 318.02 579.25 C 304.39 582.41 292.06 589.34 279.29 594.82 Z" />
<path fill="#faf7f1" opacity="1.00" d=" M 567.89 361.79 C 593.00 361.71 618.12 361.70 643.24 361.80 C 643.21 481.52 643.16 601.25 643.33 720.98 C 643.08 731.77 640.85 743.20 633.68 751.64 C 629.03 757.15 622.40 760.60 615.64 762.81 C 594.86 768.79 569.98 752.98 568.30 731.04 C 567.08 607.96 568.05 484.87 567.89 361.79 Z" />
<path fill="#faf7f1" opacity="1.00" d=" M 293.10 638.64 C 301.44 634.74 309.78 630.85 318.10 626.93 C 326.48 630.83 334.85 634.74 343.20 638.70 C 335.01 657.21 326.79 675.71 318.13 694.00 C 309.38 675.73 301.26 657.17 293.10 638.64 Z" />
</g>
</svg>
