<svg height="198pt" viewBox="0 0 225 198" width="225pt" xmlns="http://www.w3.org/2000/svg"><path d="m84.66 50.5c3.11-.65 6.26-.28 9.39.03l-1.05.62c2.05.14 3.72 1.29 5.22 2.59 1.82 2.37 3.48 5.14 3.33 8.23.05 18.01-.02 36.01.03 54.02.15 2.28-.55 4.46-1.19 6.62l-.67-.39c-.37 1.82-.89 3.6-1.33 5.41l-.67-.41c-.37 1.81-.88 3.6-1.32 5.41l-.68-.41c-.37 1.81-.89 3.6-1.33 5.41l-.67-.41c-.37 1.82-.88 3.6-1.32 5.41l-.68-.41c-.37 1.81-.88 3.59-1.33 5.39l-1.14-.31c.15.58.44 1.76.59 2.35-.42 0-1.26 0-1.68 0 .15-.59.44-1.77.58-2.35l-1.13.31c-.45-1.8-.96-3.58-1.33-5.4l-.68.42c-.44-1.8-.95-3.59-1.32-5.41l-.67.41c-.45-1.81-.96-3.59-1.33-5.41l-.67.4c-.45-1.8-.96-3.59-1.33-5.41l-.67.42c-.45-1.81-.96-3.59-1.34-5.41l-.67.38c-.63-2.15-1.33-4.32-1.18-6.59.04-18.02-.01-36.05.02-54.08-.09-3.05 1.41-5.91 3.42-8.11.8-.68 1.59-1.37 2.38-2.06.6-.31 1.82-.94 2.42-1.26m.09 8.35c-2 2.65-1.54 6.18-1.74 9.29h11.97c-.18-3.14.3-6.71-1.78-9.35-2.01-2.61-6.48-2.58-8.45.06m-1.64 16.64c-.02 13.07.01 26.13-.02 39.19 1.94-.93 3.82-2.07 5.91-2.64 2.09.57 3.96 1.71 5.91 2.65-.03-13.07-.01-26.14-.02-39.21-3.93 0-7.85 0-11.78.01m2.08 46.55c1.24 3.12 2.48 6.24 3.81 9.32 1.32-3.08 2.57-6.2 3.82-9.31-1.28-.66-2.55-1.32-3.82-1.98-1.27.66-2.54 1.32-3.81 1.97z" fill="#eb6950"/><path d="m129.08 52.66c.37-2.19 2.67-2.51 4.28-3.41l.05 1.51c.5-.15 1.51-.46 2.02-.61l-.07 1.47 1.47.12c-.16.46-.49 1.37-.65 1.82l1.39.02c-.02.83-.05 2.49-.06 3.32l1.52-.54c-.14.39-.42 1.16-.56 1.55.65 1.25 1.1 2.57 1.36 3.97l.54-.57c.43 1.81.94 3.6 1.33 5.41l.88-.18c-.02.85-.05 2.54-.07 3.39l1.58-.62c-.24.55-.72 1.65-.96 2.19l1.44.1c-.02.88-.05 2.63-.07 3.51l1-1.15c-.11 10.89.06 21.77-.1 32.65.74-.06 2.22-.19 2.95-.26l.04 1.38 1.62-.62-.98 1.78 1.31-.75c.55 1.54 1.31 3.07 1.22 4.75 0 6.87.09 13.73-.1 20.6-.88 1.04-1.76 2.08-2.62 3.14-.39-.09-1.16-.26-1.55-.35l.26 1.47c-.48-.15-1.45-.43-1.93-.58-.38 1.74-.86 3.45-1.14 5.2-1.48 2.96-3.78 6.09-7.33 6.47l.59.73c-3.85-.26-8.08.91-11.54-1.31-.81-.69-1.64-1.36-2.47-2.01-1.26-1.49-2.39-3.14-2.56-5.14l-.74.67c-.03-21.6.02-43.19-.03-64.79-.15-2.28.59-4.46 1.22-6.61l.67.41c.37-1.85.87-3.67 1.3-5.51l.61.64c.12-1.45.57-2.78 1.37-3.99-.16-.4-.48-1.19-.64-1.59l1.58.56c-.03-.85-.08-2.56-.11-3.41l.88.25c.38-1.77.91-3.49 1.37-5.23zm3.57 9.43c-.74 2.02-1.49 4.04-2.24 6.07 1.6-.02 3.2-.03 4.8-.04-.85-2.01-1.7-4.02-2.56-6.03m-5.67 13.4c.03 20.54-.11 41.09.06 61.63-.15 4.03 4.58 7.54 8.23 5.34 2.76-1.37 3.27-4.66 3.19-7.43-.02-19.85-.01-39.7-.01-59.54-3.82-.01-7.65-.01-11.47 0z" fill="#eb6950"/><g fill="#faf7f1"><path d="m84.75 58.85c1.97-2.64 6.44-2.67 8.45-.06 2.08 2.64 1.6 6.21 1.78 9.35-3.99 0-7.98 0-11.97 0 .2-3.11-.26-6.64 1.74-9.29z"/><path d="m132.65 62.09c.86 2.01 1.71 4.02 2.56 6.03-1.6.01-3.2.02-4.8.04.75-2.03 1.5-4.05 2.24-6.07z"/><path d="m83.11 75.49c3.93-.01 7.85-.01 11.78-.01.01 13.07-.01 26.14.02 39.21-1.95-.94-3.82-2.08-5.91-2.65-2.09.57-3.97 1.71-5.91 2.64.03-13.06 0-26.12.02-39.19z"/><path d="m126.98 75.49c3.82-.01 7.65-.01 11.47 0 0 19.84-.01 39.69.01 59.54.08 2.77-.43 6.06-3.19 7.43-3.65 2.2-8.38-1.31-8.23-5.34-.17-20.54-.03-41.09-.06-61.63z"/><path d="m85.19 122.04c1.27-.65 2.54-1.31 3.81-1.97 1.27.66 2.54 1.32 3.82 1.98-1.25 3.11-2.5 6.23-3.82 9.31-1.33-3.08-2.57-6.2-3.81-9.32z"/></g></svg>